<svg xmlns="http://www.w3.org/2000/svg" xmlns:xlink="http://www.w3.org/1999/xlink" viewBox="0 0 39.09 45.56"><defs><clipPath id="clip-path" transform="translate(-1024.45 -573.13)" ><path class="cls-1" d="M1044,587.83a11.31,11.31,0,1,0,11.31,11.31A11.33,11.33,0,0,0,1044,587.83Zm0,25.86a14.54,14.54,0,0,1-10.85-24.23l-2.11-2.11a1.61,1.61,0,1,1,2.28-2.28l2.23,2.23a14.44,14.44,0,0,1,6.82-2.62v-3.33h-1.62a1.62,1.62,0,0,1,0-3.23h6.46a1.62,1.62,0,1,1,0,3.23h-1.62v3.32a14.46,14.46,0,0,1,6.44,2.35l2-2a1.62,1.62,0,0,1,2.29,2.29l-1.78,1.77A14.54,14.54,0,0,1,1044,613.69Z"/></clipPath><clipPath id="clip-path-2" transform="translate(-1024.45 -573.13)"><rect class="cls-2" style="fill:none;" width="1407" height="756"/></clipPath><clipPath id="clip-path-3" transform="translate(-1024.45 -573.13)"><path class="cls-1" style="fill:none; clip-rule:evenodd;" d="M1044,600.76a1.62,1.62,0,0,1-1.19-2.71l4.48-4.85a1.62,1.62,0,0,1,2.29-.09,1.62,1.62,0,0,1,.09,2.29l-4.48,4.85A1.63,1.63,0,0,1,1044,600.76Z"/></clipPath></defs><g><g id="Layer_1" data-name="Layer 1"><g class="cls-3" style="clip-path:url(#clip-path);"><g class="cls-4" style="clip-path:url(#clip-path-2);"><rect class="cls-5" style="fill:#fff;" width="39.09" height="45.56"/></g></g><g class="cls-6" style="clip-path:url(#clip-path-3);"><g class="cls-4"><rect class="cls-5" style="fill:#fff;" x="12.93" y="14.55" width="17.72" height="18.08"/></g></g></g></g></svg>
