<svg xmlns="http://www.w3.org/2000/svg" xmlns:xlink="http://www.w3.org/1999/xlink" viewBox="0 0 22.88 22.34"><defs><style>.cls-1,.cls-2{fill:none;}.cls-2{clip-rule:evenodd;}.cls-3{clip-path:url(#clip-path);}.cls-4{clip-path:url(#clip-path-2);}.cls-5{fill:#f5b511;}.cls-6{clip-path:url(#clip-path-3);}.cls-7{clip-path:url(#clip-path-5);}.cls-8{clip-path:url(#clip-path-7);}.cls-9{clip-path:url(#clip-path-9);}.cls-10{clip-path:url(#clip-path-11);}.cls-11{clip-path:url(#clip-path-13);}</style><clipPath id="clip-path" transform="translate(-1302.29 -648.29)"><path class="cls-1" d="M1311.29,662.77l6.86-2.14.24.77-6.86,2.14Zm7-1.76-6.86,2.14Z"/></clipPath><clipPath id="clip-path-2" transform="translate(-1302.29 -648.29)"><rect class="cls-1" width="1407" height="756"/></clipPath><clipPath id="clip-path-3" transform="translate(-1302.29 -648.29)"><path class="cls-1" d="M1317.44,663.65l-6.89-2.23.25-.77,6.89,2.23Zm-6.76-2.61,6.89,2.23Zm.63,1.7a1.41,1.41,0,1,0,1,.32A1.4,1.4,0,0,0,1311.31,662.74Zm.73,1.34a.6.6,0,1,1-.21-.41A.6.6,0,0,1,1312,664.08Z"/></clipPath><clipPath id="clip-path-5" transform="translate(-1302.29 -648.29)"><path class="cls-1" d="M1317.22,663.63a.6.6,0,1,1-.44.13A.59.59,0,0,1,1317.22,663.63Zm-1.46.46a1.4,1.4,0,0,0,1.26,1.54,1.41,1.41,0,1,0-.75-2.49A1.39,1.39,0,0,0,1315.77,664.09Z"/></clipPath><clipPath id="clip-path-7" transform="translate(-1302.29 -648.29)"><polygon class="cls-2" points="1310.07 658.11 1308.59 653.58 1308.5 653.3 1308.21 653.3 1307.3 653.29 1307.29 654.1 1308.2 654.1 1307.83 653.83 1309.31 658.36 1310.07 658.11"/></clipPath><clipPath id="clip-path-9" transform="translate(-1302.29 -648.29)"><polygon class="cls-2" points="1311.66 659.92 1317.13 659.92 1317.89 657.98 1311.11 658 1311.66 659.92"/></clipPath><clipPath id="clip-path-11" transform="translate(-1302.29 -648.29)"><path class="cls-1" d="M1317.78,660.47l-.1.26h-6.62l-.08-.29-.78-2.72-.15-.51h.53l7.9,0h.59l-.21.55Zm-9.13-4,1.77,5.06,7.9-.06,1.85-5Z"/></clipPath><clipPath id="clip-path-13" transform="translate(-1302.29 -648.29)"><polygon class="cls-2" points="1313.68 654.29 1312.67 654.29 1313.69 655.13 1314.71 655.97 1315.73 655.13 1316.75 654.29 1313.68 654.29"/></clipPath></defs><title>Ресурс 4</title><g id="Слой_2" data-name="Слой 2"><g id="Layer_1" data-name="Layer 1"><g class="cls-3"><g class="cls-4"><rect class="cls-5" x="3.99" y="7.34" width="17.1" height="12.91"/></g></g><g class="cls-6"><g class="cls-4"><rect class="cls-5" x="2.74" y="7.37" width="17.66" height="14.89"/></g></g><g class="cls-7"><g class="cls-4"><rect class="cls-5" x="8.47" y="9.53" width="12.81" height="12.81"/></g></g><g class="cls-8"><g class="cls-4"><rect class="cls-5" width="12.78" height="15.07"/></g></g><g class="cls-9"><g class="cls-4"><rect class="cls-5" x="3.82" y="4.69" width="16.78" height="11.94"/></g></g><g class="cls-10"><g class="cls-4"><rect class="cls-5" x="1.37" y="3.15" width="21.52" height="15.06"/></g></g><g class="cls-11"><g class="cls-4"><rect class="cls-5" x="5.38" y="0.99" width="14.08" height="11.68"/></g></g></g></g></svg>