<svg xmlns="http://www.w3.org/2000/svg" viewBox="0 0 47.08 47.08"><defs><style>.cls-1{fill:#f5b511;}</style></defs><g id="Layer_1" data-name="Layer 1"><polygon class="cls-1" points="23.54 43.35 18.86 47.08 15.96 41.84 10.21 43.49 9.53 37.55 3.58 36.87 5.24 31.12 0 28.22 3.73 23.54 0 18.86 5.24 15.96 3.58 10.21 9.53 9.53 10.21 3.58 15.96 5.24 18.86 0 23.54 3.73 28.22 0 31.12 5.24 36.87 3.58 37.55 9.53 43.49 10.21 41.84 15.96 47.08 18.86 43.35 23.54 47.08 28.22 41.84 31.12 43.49 36.87 37.55 37.55 36.87 43.49 31.12 41.84 28.22 47.08 23.54 43.35"/></g></svg>
