<svg xmlns="http://www.w3.org/2000/svg" viewBox="0 0 100 20.76594531504777" xmlns:xlink="http://www.w3.org/1999/xlink" version="1.1"  ><g transform="translate(27.679525924007823 10.486802384099123) scale(0.10382972657523883)" id="horizontalContainerlessSvgTemplate"><g fill="#F5B511"><g transform="translate(-5.141388174807199 40.357326478149105) scale(1.7852042273636106)" fill="#F5B511"><g id="line1" fill="#F5B511"><path d="M2.880-31.608L2.880-6.336C2.880-5.184 2.916-4.344 2.988-3.816C3.060-3.288 3.264-2.664 3.600-1.944C4.272-0.648 6.120 0 9.144 0C12.216 0 14.064-0.624 14.688-1.872C15.072-2.592 15.300-3.228 15.372-3.780C15.444-4.332 15.480-5.160 15.480-6.264L15.480-31.464C15.480-32.376 15.456-33.072 15.408-33.552C15.360-34.944 14.928-35.976 14.112-36.648C13.152-37.464 11.520-37.872 9.216-37.872C6.144-37.872 4.272-37.248 3.600-36.000C3.264-35.280 3.060-34.644 2.988-34.092C2.916-33.540 2.880-32.712 2.880-31.608ZM12.816-43.488C13.728-43.776 14.364-44.268 14.724-44.964C15.084-45.660 15.300-46.284 15.372-46.836C15.444-47.388 15.480-48.216 15.480-49.320C15.480-50.424 15.444-51.252 15.372-51.804C15.300-52.356 15.072-52.992 14.688-53.712C14.064-55.008 12.240-55.656 9.216-55.656C6.144-55.656 4.272-55.008 3.600-53.712C3.264-53.040 3.060-52.428 2.988-51.876C2.916-51.324 2.880-50.496 2.880-49.392C2.880-48.288 2.916-47.460 2.988-46.908C3.060-46.356 3.276-45.720 3.636-45.000C3.996-44.280 4.632-43.776 5.544-43.488C6.456-43.200 7.668-43.056 9.180-43.056C10.692-43.056 11.904-43.200 12.816-43.488Z"></path><path d="M56.736-37.944C54.768-37.944 52.968-37.392 51.336-36.288C50.712-35.904 50.064-35.400 49.392-34.776C48.720-34.152 48.288-33.672 48.096-33.336C48.096-34.488 47.856-35.472 47.376-36.288C46.704-37.392 44.904-37.944 41.976-37.944C38.952-37.944 37.104-37.344 36.432-36.144C36.048-35.472 35.820-34.860 35.748-34.308C35.676-33.756 35.640-32.952 35.640-31.896L35.640-6.408C35.640-5.304 35.676-4.476 35.748-3.924C35.820-3.372 36.024-2.736 36.360-2.016C37.032-0.720 38.880-0.072 41.904-0.072C44.976-0.072 46.824-0.720 47.448-2.016C47.832-2.688 48.060-3.300 48.132-3.852C48.204-4.404 48.240-5.232 48.240-6.336L48.240-19.080C48.240-20.952 48.828-22.464 50.004-23.616C51.180-24.768 52.716-25.344 54.612-25.344C56.508-25.344 58.020-24.792 59.148-23.688C60.276-22.584 60.840-21.048 60.840-19.080L60.840-6.408C60.840-4.776 60.984-3.552 61.272-2.736C61.800-0.960 63.768-0.072 67.176-0.072C70.248-0.072 72.120-0.720 72.792-2.016C73.128-2.688 73.332-3.300 73.404-3.852C73.476-4.404 73.512-5.232 73.512-6.336L73.512-19.008C73.512-24.288 71.916-28.764 68.724-32.436C65.532-36.108 61.536-37.944 56.736-37.944Z"></path><path d="M121.032-55.224C120.120-54.936 119.484-54.444 119.124-53.748C118.764-53.052 118.548-52.428 118.476-51.876C118.404-51.324 118.368-50.496 118.368-49.392L118.368-34.272C116.400-36.672 113.640-37.872 110.088-37.872C105.816-37.872 101.892-35.976 98.316-32.184C94.740-28.392 92.952-23.988 92.952-18.972C92.952-13.956 94.728-9.564 98.280-5.796C101.832-2.028 105.768-0.144 110.088-0.144C113.688-0.144 116.496-1.296 118.512-3.600C118.896-1.248 120.756-0.072 124.092-0.072C127.428-0.072 129.456-0.720 130.176-2.016C130.560-2.688 130.788-3.300 130.860-3.852C130.932-4.404 130.968-5.232 130.968-6.336L130.968-49.320C130.968-50.424 130.932-51.252 130.860-51.804C130.788-52.356 130.572-52.992 130.212-53.712C129.852-54.432 129.216-54.936 128.304-55.224C127.392-55.512 126.180-55.656 124.668-55.656C123.156-55.656 121.944-55.512 121.032-55.224ZM111.960-12.672C110.184-12.672 108.672-13.320 107.424-14.616C106.176-15.912 105.552-17.352 105.552-18.936C105.552-20.520 106.128-21.972 107.280-23.292C108.432-24.612 109.968-25.272 111.888-25.272C113.808-25.272 115.332-24.600 116.460-23.256C117.588-21.912 118.152-20.460 118.152-18.900C118.152-17.340 117.564-15.912 116.388-14.616C115.212-13.320 113.736-12.672 111.960-12.672Z"></path><path d="M175.752-33.912C175.416-34.392 174.984-34.884 174.456-35.388C173.928-35.892 172.992-36.432 171.648-37.008C170.304-37.584 168.816-37.872 167.184-37.872C162.912-37.872 158.988-35.988 155.412-32.220C151.836-28.452 150.048-24.060 150.048-19.044C150.048-14.028 151.824-9.624 155.376-5.832C158.928-2.040 162.780-0.144 166.932-0.144C171.084-0.144 174.048-1.416 175.824-3.960C175.968-2.712 176.484-1.764 177.372-1.116C178.260-0.468 180.012-0.144 182.628-0.144C185.244-0.144 186.888-0.768 187.560-2.016C187.896-2.736 188.100-3.372 188.172-3.924C188.244-4.476 188.280-5.304 188.280-6.408L188.280-31.608C188.280-32.712 188.244-33.540 188.172-34.092C188.100-34.644 187.884-35.280 187.524-36.000C187.164-36.720 186.528-37.224 185.616-37.512C184.704-37.800 183.312-37.944 181.440-37.944C177.936-37.944 176.040-36.600 175.752-33.912ZM164.520-14.652C163.272-15.924 162.648-17.352 162.648-18.936C162.648-20.520 163.236-21.984 164.412-23.328C165.588-24.672 167.124-25.344 169.020-25.344C170.916-25.344 172.428-24.672 173.556-23.328C174.684-21.984 175.248-20.532 175.248-18.972C175.248-17.412 174.660-15.984 173.484-14.688C172.308-13.392 170.832-12.744 169.056-12.744C167.280-12.744 165.768-13.380 164.520-14.652Z"></path><path d="M222.336-14.220C220.992-15.348 220.320-16.932 220.320-18.972C220.320-21.012 221.016-22.608 222.408-23.760C223.800-24.912 225.300-25.488 226.908-25.488C228.516-25.488 229.752-25.080 230.616-24.264C232.296-23.208 233.592-22.680 234.504-22.680C236.088-22.680 237.744-24.000 239.472-26.640C240.480-28.176 240.984-29.556 240.984-30.780C240.984-32.004 240.360-33.096 239.112-34.056C238.632-34.392 237.960-34.848 237.096-35.424L235.944-36.144C235.128-36.624 233.856-37.116 232.128-37.620C230.400-38.124 228.624-38.376 226.800-38.376C222.288-38.376 218.040-36.792 214.056-33.624C212.088-32.088 210.480-30.060 209.232-27.540C207.984-25.020 207.360-22.212 207.360-19.116C207.360-16.020 207.984-13.188 209.232-10.620C210.480-8.052 212.088-6.000 214.056-4.464C218.184-1.248 222.480 0.360 226.944 0.360C230.928 0.360 234.288-0.600 237.024-2.520C239.664-4.104 240.984-5.808 240.984-7.632C240.984-8.736 240.432-9.984 239.328-11.376C237.264-13.920 235.512-15.192 234.072-15.192C233.256-15.192 232.188-14.748 230.868-13.860C229.548-12.972 228.132-12.528 226.620-12.528C225.108-12.528 223.680-13.092 222.336-14.220Z"></path><path d="M284.688-33.912C284.352-34.392 283.920-34.884 283.392-35.388C282.864-35.892 281.928-36.432 280.584-37.008C279.240-37.584 277.752-37.872 276.120-37.872C271.848-37.872 267.924-35.988 264.348-32.220C260.772-28.452 258.984-24.060 258.984-19.044C258.984-14.028 260.760-9.624 264.312-5.832C267.864-2.040 271.716-0.144 275.868-0.144C280.020-0.144 282.984-1.416 284.760-3.960C284.904-2.712 285.420-1.764 286.308-1.116C287.196-0.468 288.948-0.144 291.564-0.144C294.180-0.144 295.824-0.768 296.496-2.016C296.832-2.736 297.036-3.372 297.108-3.924C297.180-4.476 297.216-5.304 297.216-6.408L297.216-31.608C297.216-32.712 297.180-33.540 297.108-34.092C297.036-34.644 296.820-35.280 296.460-36.000C296.100-36.720 295.464-37.224 294.552-37.512C293.640-37.800 292.248-37.944 290.376-37.944C286.872-37.944 284.976-36.600 284.688-33.912ZM273.456-14.652C272.208-15.924 271.584-17.352 271.584-18.936C271.584-20.520 272.172-21.984 273.348-23.328C274.524-24.672 276.060-25.344 277.956-25.344C279.852-25.344 281.364-24.672 282.492-23.328C283.620-21.984 284.184-20.532 284.184-18.972C284.184-17.412 283.596-15.984 282.420-14.688C281.244-13.392 279.768-12.744 277.992-12.744C276.216-12.744 274.704-13.380 273.456-14.652Z"></path><path d="M345.420-36.036C344.820-36.732 344.064-37.224 343.152-37.512C342.240-37.800 341.400-38.004 340.632-38.124C339.864-38.244 338.916-38.304 337.788-38.304C336.660-38.304 335.352-37.896 333.864-37.080C332.376-36.264 331.404-35.616 330.948-35.136C330.492-34.656 330.144-34.248 329.904-33.912C329.904-34.728 329.640-35.520 329.112-36.288C328.392-37.392 326.592-37.944 323.712-37.944C320.640-37.944 318.768-37.296 318.096-36.000C317.760-35.328 317.556-34.716 317.484-34.164C317.412-33.612 317.376-32.784 317.376-31.680L317.376-6.408L317.376-4.320C317.472-2.928 317.904-1.896 318.672-1.224C319.680-0.408 321.336 0 323.640 0C326.664 0 328.536-0.624 329.256-1.872C329.640-2.592 329.868-3.228 329.940-3.780C330.012-4.332 330.048-5.160 330.048-6.264L330.048-21.384C330.048-22.680 330.612-23.784 331.740-24.696C332.868-25.608 334.080-26.064 335.376-26.064C336.672-26.064 337.716-25.872 338.508-25.488C339.300-25.104 340.128-24.912 340.992-24.912C342.720-24.912 344.040-25.824 344.952-27.648C345.864-29.472 346.320-31.152 346.320-32.688C346.320-34.224 346.020-35.340 345.420-36.036Z"></path><path d="M386.712-25.200C387.816-25.200 388.644-25.236 389.196-25.308C389.748-25.380 390.384-25.584 391.104-25.920C392.400-26.592 393.048-28.440 393.048-31.464C393.048-34.536 392.424-36.384 391.176-37.008C390.456-37.392 389.820-37.620 389.268-37.692C388.716-37.764 387.900-37.800 386.820-37.800C385.740-37.800 384.144-37.704 382.032-37.512L382.032-44.568C382.032-46.248 381.912-47.472 381.672-48.240C381.048-50.016 379.104-50.904 375.840-50.904C372.768-50.904 370.920-50.304 370.296-49.104C369.912-48.480 369.684-47.904 369.612-47.376C369.540-46.848 369.504-46.032 369.504-44.928L369.504-37.512L367.128-37.800C365.976-37.800 365.016-37.488 364.248-36.864C363.816-36.480 363.480-35.844 363.240-34.956C363.000-34.068 362.880-32.640 362.880-30.672C362.880-28.704 363.228-27.312 363.924-26.496C364.620-25.680 365.496-25.272 366.552-25.272C367.608-25.272 368.592-25.344 369.504-25.488L369.504-14.832C369.504-9.456 370.800-5.640 373.392-3.384C375.984-1.128 379.776 0 384.768 0C385.824 0 386.628-0.036 387.180-0.108C387.732-0.180 388.368-0.384 389.088-0.720C390.432-1.392 391.104-3.240 391.104-6.264C391.104-8.856 390.552-10.464 389.448-11.088C388.776-11.472 388.140-11.700 387.540-11.772C386.940-11.844 386.076-11.880 384.948-11.880C383.820-11.880 383.052-12.168 382.644-12.744C382.236-13.320 382.032-14.256 382.032-15.552L382.032-25.488Z"></path></g></g><g transform="translate(-269.0305191234387 -107.85132458261909) scale(4.274064192484193)" id="logomark"><g fill="#F5B511"><path d="M42.186 30.884L16.18 39.003M15.722 37.545L41.73 29.43l.91 2.916-26.007 8.116z"></path><path d="M18.573 42.534a2.276 2.276 0 0 1-2.056 2.48 2.283 2.283 0 0 1-1.967-3.725 2.262 2.262 0 0 1 1.542-.811 2.272 2.272 0 0 1 2.481 2.056zm-2.766-5.099a5.312 5.312 0 0 0-3.607 1.91 5.29 5.29 0 0 0-1.204 3.898 5.342 5.342 0 0 0 5.809 4.813 5.304 5.304 0 0 0 3.606-1.908 5.307 5.307 0 0 0 1.202-3.898 5.295 5.295 0 0 0-1.906-3.607 5.299 5.299 0 0 0-3.9-1.208zM13.437 30.991l26.114 8.449M39.08 40.896l-26.115-8.45.94-2.904 26.115 8.45z"></path><path d="M32.707 42.546a5.293 5.293 0 0 0 1.184 3.906 5.304 5.304 0 0 0 3.6 1.92 5.34 5.34 0 0 0 5.828-4.781 5.344 5.344 0 0 0-4.785-5.832 5.295 5.295 0 0 0-3.904 1.188 5.281 5.281 0 0 0-1.923 3.599zm5.527-1.748a2.282 2.282 0 0 1 2.045 2.492 2.283 2.283 0 0 1-2.492 2.045 2.276 2.276 0 0 1-2.043-2.494c.059-.605.35-1.15.82-1.537a2.26 2.26 0 0 1 1.67-.506z"></path><g><path d="M11.112 19.866L5.497 2.681l-.34-1.041-1.101-.008-3.459-.029-.025 3.054 3.464.028L2.595 3.63l5.614 17.182z"></path></g><g><path d="M17.157 26.745h20.741l2.868-7.363-25.696.094z"></path><path d="M5.755 13.544l6.695 19.205 29.956-.219 7.021-18.986H5.755zm34.61 15.281l-.381.975H14.858l-.316-1.104-2.963-10.316-.558-1.939 2.019-.008 29.957-.109 2.24-.008-.813 2.088-4.059 10.421z"></path></g><g><path fill-rule="evenodd" clip-rule="evenodd" d="M24.79 5.376h-3.81l3.866 3.197 3.865 3.189 3.867-3.189 3.867-3.197H24.79z"></path></g></g></g></g></g></svg>